General
Complete name                    : Push.2009.NORDiC.x264.AC3(5.1).mkv.Zen_Bud
Format                           : Matroska
File size                        : 1.36 GiB
Duration                         : 1h 46mn
Overall bit rate                 : 1 824 Kbps
Writing application              : HandBrake 0.9.4

Video
ID                               : 1
Format                           : AVC
Duration                         : 1h 46mn
Bit rate                         : 1 440 Kbps
Width                            : 720 pixels
Height                           : 436 pixels
Display aspect ratio             : 2.35:1
Stream size                      : 1.05 GiB (77%)
Writing library                  : x264 core 79

Audio

Format                           : AC-3
Duration                         : 1h 46mn
Bit rate                         : 384 Kbps
Channel(s)                       : 6 channels
Channel positions                : Front: L C R, Side: L R, LFE
Sampling rate                    : 48.0 KHz
Stream size                      : 294 MiB (21%)
Language                         : English

Text #1
Language                         : Swedish

Text #2
Language                         : Danish

Text #3
Language                         : Norwegian

Text #4
Language                         : Finnish